<svg xmlns="http://www.w3.org/2000/svg" viewBox="0 0 483.86 348.53"><defs><style>.cls-1,.cls-11,.cls-12,.cls-13,.cls-15,.cls-18,.cls-5{fill:#ebe7e7;}.cls-1,.cls-3,.cls-4,.cls-5{stroke:#231f20;}.cls-1,.cls-10,.cls-11,.cls-13,.cls-15,.cls-16,.cls-17,.cls-18,.cls-19,.cls-3,.cls-4,.cls-5,.cls-6,.cls-7,.cls-9{stroke-miterlimit:10;}.cls-10,.cls-16,.cls-17,.cls-2,.cls-3,.cls-6,.cls-7,.cls-9{fill:none;}.cls-15,.cls-16,.cls-3{stroke-width:0.5px;}.cls-4{fill:#f0e6d0;}.cls-5,.cls-6{stroke-width:0.75px;}.cls-10,.cls-11,.cls-13,.cls-15,.cls-16,.cls-18,.cls-19,.cls-6,.cls-7,.cls-9{stroke:#404041;}.cls-8{fill:#404041;}.cls-13,.cls-9{stroke-width:2px;}.cls-10,.cls-11{stroke-width:0.25px;}.cls-14{fill:#231f20;}.cls-17{stroke:#ebe7e7;}.cls-19,.cls-20{fill:#daccbf;}.cls-21{font-size:52.61px;fill:#f9f8f7;font-family:Brice-BoldExpanded, Brice;font-weight:700;}.cls-22{letter-spacing:-0.03em;}.cls-23{letter-spacing:-0.08em;}.cls-24{letter-spacing:-0.04em;}.cls-25{letter-spacing:-0.03em;}.cls-26{letter-spacing:0em;}</style></defs><g id="right_ear_outside_" data-name="right ear (outside)"><path class="cls-1" d="M395.12,117.62s1.85,2,2.4-.93.93-7.38,1.48-10,.37-4.79,1.48-7.75,3.14-9.6,4.43-11.81,2.4-6.65,3.87-8.68.56-3.51,3.33-6.65,2.58-4.24,5.35-7.75,4.25-4.06,4.25-6.83.92-9.78,0-12.74-.37-6.64-3-8.86-2.77-3.32-6.27-3.32-4.62-1.48-7,.92-5.72,5.36-6.46,7.94-3.69,9.23-4.61,13.29-2.22,5.91-2.77,9.05-1.48,5.54-1.67,7.75,1.11,2.22,0,5.54-2.95,9-2.95,9l-4.43,11.08-3.14,10.34s-1.29,1.29-.92,2.4-1.43,3.69-.07,4.24a11.37,11.37,0,0,0,3.76.93c.92,0,6.28,1.11,6.28,1.11Z"/></g><g id="right_ear_inside_" data-name="right ear (inside)"><polygon class="cls-2" points="390.14 110.6 391.43 107.28 392.72 110.6 390.14 110.6"/><line class="cls-3" x1="391.43" y1="107.28" x2="392.72" y2="110.6"/><path class="cls-3" d="M393.49,106.69s.75-2,1.16-2.87a8.46,8.46,0,0,0,.89-2.73V98.77l-.34.68s-.14,1-.34,1.91a19.79,19.79,0,0,1-.82,2.46l-.55,1.3Z"/><line class="cls-3" x1="391.43" y1="107.37" x2="390.14" y2="110.7"/><path class="cls-3" d="M389.09,99.87c.82-2.57,2.34-6.67,2.34-6.67"/><line class="cls-3" x1="389.22" y1="99.45" x2="387.9" y2="102.76"/><line class="cls-3" x1="387.9" y1="102.73" x2="387.9" y2="106.29"/><line class="cls-3" x1="393.85" y1="83.72" x2="392.31" y2="91.82"/><line class="cls-3" x1="403.6" y1="80.12" x2="401.87" y2="83.24"/><path class="cls-3" d="M395.54,80.12v-4h.67s-.72-1.29,0-1.69S397.5,72,397.5,72s.48,1.27,0,1.29-1,1.58-1,1.58l-.05.52.07.43,0,.47-.73.26Z"/><path class="cls-3" d="M410.46,43.09a41.76,41.76,0,0,0-6.86,3.73A12.77,12.77,0,0,0,402,51c-.64,2.82-1.08,7.26-1.08,7.26"/><line class="cls-3" x1="405.68" y1="71.99" x2="411.41" y2="60.73"/><line class="cls-3" x1="412.63" y1="58.25" x2="414.62" y2="52.15"/></g><g id="left_ear" data-name="left ear"><path class="cls-1" d="M368.91,113.17,358.09,77.88s-.53-.11-1,2.94.1,5.6-1.58,7-4.72,4.71-8.61,2.29S339,85.81,340,81.68s2.1-9.16,3.89-12.31,5.46-11.14,7.46-12.08,7.45-3,8.93-3,5.25-.63,7,1.79a25.65,25.65,0,0,1,3.89,8.19C372.16,67.37,376,78.4,376,78.4l6.62,18.54-5,16.23Z"/><path class="cls-4" d="M357.67,78.45s4.16-6.16,6.23-8a23,23,0,0,0,3.31-3.62"/><path class="cls-3" d="M367.21,67.2s2.08,6.61,2.7,9.55.62,4.27,1.39,6,3.09,5.94,3.33,8,.77,6.6.54,8.17-.08,2.19-1.24,1.19-1.7-1.91-1.55-.76.31,2.15.7,2.38.39,1.31-.08,1.39-.15.26.23.87a2.31,2.31,0,0,1,.39,1.78"/><path class="cls-3" d="M359.52,76.67a4.11,4.11,0,0,1,.7,1.78,4.08,4.08,0,0,0,.64,2.47,7.9,7.9,0,0,1,.75,2.8"/><path class="cls-3" d="M362.92,87.77A45,45,0,0,1,365.71,96l.46,3"/></g><g id="Head"><path class="cls-1" d="M367.5,114.08a34.57,34.57,0,0,0-6.64,4.22,32,32,0,0,0-6.09,7.15c-.61,1.21-6.95,16.35-6.95,16.35S346.57,150,345.63,152s-3.66,6.69-3.66,6.69-5.23,6.64-4.84,13.41,0,10.83,4.64,15.12,9.86,7.63,14.15,9.06,15.4,4.61,22,3.49,18.52-3.81,23.45-6.67,9.85-4,12.08-7.95,5.56-7.47,4.77-14.14-3.34-14.63-4.45-20.83-2.39-13.83-4.3-18.59-2.51-11-11.76-13.33-18.09-4.22-24.16-4.22Z"/></g><g id="eyebrows"><path class="cls-5" d="M355.84,127.65,351.26,132s-1.21.15-.53-1.43,1-2.63,2.45-3.46a5.69,5.69,0,0,1,2.66-1.05c.6,0,1.5-.23.75.68Z"/><path class="cls-6" d="M379.58,125.15l5.41,3.64s2,2.21,2.59,1.15,1.87-.54.52-2.25-1.14-1.71-3-2.54-2.6-1.87-3.64-1.87-1.87-.62-1.87.62Z"/></g><g id="eyes_glasses" data-name="eyes + glasses"><path class="cls-7" d="M384.69,132.21c-3.21,0-6.79-1.11-9.75,1.86a18,18,0,0,0-4.07,6.29"/><path class="cls-7" d="M369.63,143.45c0,1.6-.86,2.47,0,3.58"/><path class="cls-8" d="M387,133.49s4.17,2.56,4.5,4.51.74,2.09.67,3.77.61,3.06-.4,5.36-1.82,4.79-4.37,6.34a9,9,0,0,1-4.15,1.55,1.81,1.81,0,0,1,.92-1.15c.81-.47,2.89-.4,4.24-3.09s2.22-3.09,2.22-5.92.2-4.77-.81-6.59S387,133.49,387,133.49Z"/><path class="cls-7" d="M383.11,154.91a6.73,6.73,0,0,1-4.56,0c-2.84-.87-7.14-5.53-7.14-5.53s5.14,4.38,5.85,4.38,3.38.67,4.62.48a16.54,16.54,0,0,1,2.26-.19Z"/><path class="cls-7" d="M380.18,154.19l-2.73-.11a15,15,0,0,0,3.29.94,13,13,0,0,0,2.49-.63Z"/><polygon class="cls-7" points="379.53 154.45 380.64 154.75 381.49 154.6 379.53 154.45"/><path class="cls-9" d="M380.51,139.91s2.59.09,3.15,1.31a21.88,21.88,0,0,1,1,3"/><path class="cls-8" d="M391.64,145.87s11.49,2.11,12,1.57,2.49-1.27,1.82-2.69.1-2-3.46-2.58-10.44-1.72-10.44-1.72Z"/><path class="cls-7" d="M348.07,136.64s2.08-2.92,4.38-2.53"/><path class="cls-8" d="M343.27,148.2s1.29,3.32,3,3.64,2.21.66,3.7.5a12.22,12.22,0,0,0,3.32-.69,10.1,10.1,0,0,0,4.28-2.27c1.24-1.31,3.32-2.93,3.58-4.62s1.08-3.12-.27-5.45a15,15,0,0,0-3.5-3.95s-.17-.11,0,.36,1.4,1.12,2.08,2.53,1.4,2.1,1.2,3.14.15,2.8-1.53,4.53-2.34,3.09-3.89,3.46-1.12,1.38-3.76,1.38-3.66.82-5.09-.13A33.5,33.5,0,0,1,343.27,148.2Z"/><path class="cls-9" d="M348.38,143.86s1.87-2.62,2.95-2.91,2.37-.5,2.37-.5"/></g><g id="nose"><path class="cls-8" d="M355,154.66a.13.13,0,0,1,.09-.24,11.91,11.91,0,0,0,2-.09,6.39,6.39,0,0,0,2.83-1.1h0l2.78-2.47a.14.14,0,0,1,.17,0,2.67,2.67,0,0,1,.92,1.63c.25,1.23.49,1.6-.64,3.15s-2.38,1.48-3.95,1.42C358,156.89,355.88,155.32,355,154.66Z"/><path class="cls-10" d="M355,154.58a7.52,7.52,0,0,1,.94-3.19c.76-1.08,2.33-1.23,3.87-1.65s3,1.15,3,1.15"/></g><g id="mustache"><path class="cls-8" d="M360.61,159.24a1.53,1.53,0,0,0-.8.5c-1.46,1.76-1.48,4.81-.9,6.89.33,1.17,2,3,5.44,5a17.75,17.75,0,0,0,8.35,2.17,49.46,49.46,0,0,0,8-.58,9.26,9.26,0,0,0,6-2.52,20.38,20.38,0,0,0,3.84-7.11.87.87,0,0,0-1.08-1.1,5.42,5.42,0,0,0-1.8,1.24c-.55.46-1.15.83-1.73,1.26a11.35,11.35,0,0,0-1.49,1.27c-.39.42-.7,1.1-1.25,1.35-.82.37-2.34-.14-3.15-.51a12.55,12.55,0,0,1-2.53-1.81,14.77,14.77,0,0,1-1.65-1.51,13.79,13.79,0,0,0-1.61-1.95,8.88,8.88,0,0,0-3.19-1.57c-1.3-.36-2.53-.43-3.75-.87a9.94,9.94,0,0,0-3.15-.74,19.32,19.32,0,0,0-2.79.46A5.11,5.11,0,0,0,360.61,159.24Z"/><path class="cls-8" d="M353.91,158.3a1.53,1.53,0,0,1,.74.55c1.31,1.85,1.14,4.91.46,7-.39,1.15-2.11,2.88-5.54,4.72a16.58,16.58,0,0,1-8.18,1.69,47.16,47.16,0,0,1-7.66-1,8.88,8.88,0,0,1-5.6-2.88,20.65,20.65,0,0,1-3.27-7.35.86.86,0,0,1,1.11-1.05,5.44,5.44,0,0,1,1.65,1.34c.51.5,1.07.91,1.6,1.37a10.84,10.84,0,0,1,1.35,1.36c.36.45.62,1.15,1.13,1.43.77.42,2.27,0,3.07-.33a12.49,12.49,0,0,0,2.55-1.68A14.09,14.09,0,0,0,339,162a13,13,0,0,1,1.67-1.86,8.5,8.5,0,0,1,3.17-1.4c1.27-.28,2.46-.29,3.66-.66a9.55,9.55,0,0,1,3.08-.56,16.69,16.69,0,0,1,2.67.63A4.54,4.54,0,0,1,353.91,158.3Z"/><path class="cls-6" d="M352.45,182.59A20.57,20.57,0,0,0,357,186a11.39,11.39,0,0,0,3.87.77"/></g><g id="tail"><path class="cls-9" d="M433.58,277.87l3.12-.79,1.39-.52a15.34,15.34,0,0,0,2.16-.09,7.37,7.37,0,0,0,2.13-.83s1.07.8,1.12-.05-.35-1.67.57-2.27,4-2.78,5-4.5,3.15-3.39,3-6.28,1.38-2.86-.23-5.4-3.7-5.25-3.7-5.25l-1.26-3a6.46,6.46,0,0,0-2.85-2.86,9.84,9.84,0,0,0-3-1.46"/><path class="cls-11" d="M430,252.26s.25-2.74.82-2.55a3.24,3.24,0,0,0,1.43,0s.48-2.36,1.82-3,3.74-2.18,5.64-2.18"/><path class="cls-12" d="M434,277.53l-.1-10.58L430,252.18s-.08-2,.38-2,1.33,0,1.33,0-.12.29.95-1.06,1.89-2.88,3.29-3.19,1.9-1,3.1-.79,2.48-.06,3.76.67,2.4,1.08,3,1.88,1.66,4.12,2.4,5,2.85,4,3.4,4.7a3,3,0,0,1,.54,2.46c-.13,1,.3,2.57-.5,3.9s-2.14,3.7-3.14,4.51-4.55,4.32-4.55,4.32l-1.28,1.15.09,1.82s-.21-.74-1.24-.2a40.43,40.43,0,0,1-5.8,1.34Z"/></g><g id="inside_of_foot" data-name="inside of foot"><path class="cls-12" d="M349.88,310.58l9.73-10.06s34.43-2.38,37,.12,14.87,18.23,14.87,18.23l-48.08-12.5Z"/></g><g id="right_foot" data-name="right foot"><path class="cls-9" d="M425.87,310.34s3.06,4.07,0,10-3.18,7.57-10,7.8a108.69,108.69,0,0,1-14.76-.79l-8.76-.23-4.75.34s.34-.05-1.7.71a18.61,18.61,0,0,1-5.25.76s.62,1.13-1.87,1.13-11.88.46-11.88.46l3.05-1.7-3.05-.34-3.31.45-1.67-7s.74-1.81-1.1-1.47-4,.45-2.86.9a4.81,4.81,0,0,0,2.38.23,1.53,1.53,0,0,1,.48,1.36c0,1,0,5.43,0,5.43v2.15s.36.65-1,1.29a17.49,17.49,0,0,1-7.25,1.2c-2.71-.17-5.42-.05-6.74-2.53s-3.63-5.76-3.11-7.89a10.7,10.7,0,0,1,2.71-5.24,5.54,5.54,0,0,1,2.82-1.32"/><path class="cls-8" d="M361.05,331l5.22-.1L370,329l-2.23-.23-4.1.61s-1-2.63-1.34-3.89l-.9-3.65s.08-.68.11-1-.58-.15-1-.24a17,17,0,0,0-2.8.42s2.27.71,2.1.1c-.11-.41-.21,1.14,1,.69C361.34,321.61,361.05,331,361.05,331Z"/><rect class="cls-8" x="362.78" y="328.93" width="4.91" height="0.24" transform="translate(-35.72 44.61) rotate(-6.66)"/><rect class="cls-8" x="362" y="321.74" width="0.41" height="6.17" transform="translate(-62.41 87.32) rotate(-12.67)"/><ellipse class="cls-8" cx="361.58" cy="321.45" rx="0.47" ry="0.86"/></g><g id="inside_of_right_foot" data-name="inside of right foot"><path class="cls-12" d="M345.57,331.86s-7.16.82-10.27,0l-4.56-1.21.26-9.1,13-5.36,3.33-2,1.49.39a12.12,12.12,0,0,0-3.24,1.68,18.65,18.65,0,0,0-2.65,4.36,9.44,9.44,0,0,0-.54,3.28,37.21,37.21,0,0,0,2.18,5.4c.45.68,1.44,2.43,1.44,2.43Z"/><path class="cls-12" d="M345.2,316.92a18.7,18.7,0,0,1,2.23-1.2c.47-.12.95-.28.95-.28l.24,1.39s-3.37,1-4.17,3.33a9.83,9.83,0,0,0,.66,7.72c1.3,2,2.84,4.83,7.23,4.5s6.29-.86,7.06-1.23.74.07.74-3.33-.14-5.38-.14-5.38-2.91.13-3-.33-.57-.66-.1-1.37-.29-.56,1.28-.91,3.82-.56,4.35-.24,1.78,1,1.08,1.7.66,6.31.66,6.31l7.52.26.93.48-2.91,1.36s9.91-.26,9.95-.48a2.71,2.71,0,0,0-.22-.89,1.54,1.54,0,0,1,.79-.33c.37,0,6.84-1.13,6.84-1.13l1.58-.45,9-.2s5.4-.2,6.83.21,11.87,1.62,14.77.08,2.84-.9,4.11-3.41,2.83-3.08,2.69-5.87-.36-5.86-1.06-6.14-4.67,4.4-7.08,5.86-6.08,3.35-7.64,2.94l-41.15-11.38a25.6,25.6,0,0,0-4.23.38c-.89.31-10.4,2.09-11.4,2.51S345.2,316.92,345.2,316.92Z"/><rect class="cls-12" x="368.46" y="313.04" width="42.01" height="5.08" transform="translate(104.9 -97.09) rotate(16.39)"/></g><g id="right_foot_toe_" data-name="right foot (toe)"><path class="cls-9" d="M345.94,331.43a14.52,14.52,0,0,1-7.45,1.17,66.29,66.29,0,0,1-8-2.11l.32-9.09s10.23-3.93,12.11-5.1,6.8-3.76,6.8-3.76,3.11-2.09,5.07-2.4S365,307.88,365,307.88"/></g><g id="right_toe" data-name="right toe"><path class="cls-13" d="M329.37,321.1s-6.05-.52-7.66,1.37-1.79,2.45-1.69,3.5.8,2.64,1.76,3.06,1.39.94,2,1,5.18-.37,5.18-.37Z"/></g><g id="left_foot" data-name="left foot"><path class="cls-13" d="M328.29,304.87l-2.23,1.69s-2.87-.48-3.43,0-2.46,1-2.9,1.59-3.79,1.8-3.79,1.8-3.27,3.4-4.86,3.78-4.63.7-4.63.7v1.2a58.6,58.6,0,0,0-4.86,3.62c-.08.32-2.79,1.63-3.67,3.38s-2.39,3.76-1,5.77,2.95,3.06,4.86,3.14,19.85-.65,19.85-.65-3-2.41-3-3.53-.32-3.59.72-4.73,1.59-2.26,3.26-2.7a33.17,33.17,0,0,1,5.66-.6,4.59,4.59,0,0,0,3.38-.33c2.4-.9,12.8-5.8,12.8-5.8s-7.38-2.25-7.89-2.65a47.83,47.83,0,0,0-4.91-3A18.83,18.83,0,0,1,328.29,304.87Z"/></g><g id="left_toe" data-name="left toe"><path class="cls-13" d="M297.23,320.89s-7.36.63-8.13,1.34a4.8,4.8,0,0,0-1.52,2.69,9.44,9.44,0,0,0,.17,4.49,3.48,3.48,0,0,0,2.13,2.12c.81.11,7,0,7,0s-2.36-2.33-2.44-3.28a6.45,6.45,0,0,1,.44-3.26C295.41,324.05,297.23,320.89,297.23,320.89Z"/></g><g id="lower_half_of_bunny" data-name="lower half of bunny"><path class="cls-13" d="M310.26,270s2.67,11.16,6.82,17.33,11,17.33,17.34,20.65,7.81,4,12.21,5S383,274.3,383,274.3Z"/><path class="cls-13" d="M410.6,318.15s4.34.92,9.81-4.79,10.26-12.54,11.86-18S434,283,434,277.53s-4-10.92-4-10.92l-50.42,5-20.66,30.79s33.4-4.11,37.52-.23,6.18,4.79,8.23,7.75S410.6,318.15,410.6,318.15Z"/></g><g id="Layer_31" data-name="Layer 31"><path class="cls-8" d="M388.34,307.22s-.08.56-2.4.64-7.62-.32-7.62-.32a4.38,4.38,0,0,0-2.57-.32c-1.52.24-4.33.3-4.33.3s-3.84.62-4.81,0a10.7,10.7,0,0,1-1.6-1.26,5.75,5.75,0,0,0,1.36.48c.56.08,3.21,0,3.21,0l3-.08,1.92-.8h13.31a.48.48,0,0,1,.56.35A2.8,2.8,0,0,1,388.34,307.22Z"/></g><g id="line"><rect class="cls-12" x="361.57" y="289.02" width="2.81" height="13.13" transform="translate(239.93 -156.05) rotate(35.6)"/></g><g id="suit"><path class="cls-8" d="M412.63,188.44s7.81,5.79,10.78,13S429,211,427.5,215.46a55.17,55.17,0,0,0-2.6,12.64c-.19,3.16-1.67,4.84-.74,6.88s5.58,14.7,5.58,14.7l4.09,16.73v11.31a66.33,66.33,0,0,1-25.57,10.67c-15.35,2.89-28,4.67-37.36,3.78s-25.77-2.22-30.67-5.11a60.53,60.53,0,0,1-9.74-7.63v-7.7l-7.11,7.11L312,277.45a5.92,5.92,0,0,1-1.77-3.94c-.3-2.77-.89-3.46,0-6.82s2.66-11.45,2.66-11.45l1.68-9.57-6.42-1.56s-.28.55,2.06-1.38,2.47-3.3,4.13-6.74,2.75-5.91,3.16-9.9,1.65-5-.55-6.33-3.72-2.2-1.65-3.16,12.65-.41,12.65-.41l7.15.41,9.63-11.69-.82-7s3-1.37,3.71-1.1,3.44-1.37,3.44-1.37,4.26.55,4.26,2.34-1.1,28.47-1.1,28.47l33.43-27.1Z"/><path class="cls-12" d="M356.66,198s6.85,3.64,12.25,3.45,18.77-2.27,18.77-2.27l-32.47,25.68Z"/></g><g id="bow_tie" data-name="bow tie"><path class="cls-14" d="M363.63,207.18l3.63,5.65a50,50,0,0,0,3-4.93,16.46,16.46,0,0,0,1.77-5.46c.13-1.58.46-2-1.38-1.9s-6.11,1.7-6.11,1.7Z"/><path class="cls-14" d="M357.06,205.48l-6.05,2.9a49.58,49.58,0,0,1,.07-5.74,16.22,16.22,0,0,1,1.36-5.58c.71-1.41.64-1.92,2.17-.9s4.31,4.67,4.31,4.67Z"/><circle class="cls-14" cx="360.98" cy="204.45" r="4.35"/><ellipse class="cls-14" cx="358.28" cy="214.84" rx="1.35" ry="0.85" transform="translate(43.74 489.76) rotate(-72.1)"/><ellipse class="cls-14" cx="355.71" cy="222.81" rx="1.35" ry="0.85" transform="translate(34.37 492.84) rotate(-72.1)"/></g><g id="right_hand" data-name="right hand"><path class="cls-15" d="M421.82,289.77a4.18,4.18,0,0,1-.63,2.68c-.87,1.58-2.38,5.28-3.17,6.15s-2.84,4.58-4.66,5.13-1.66,1.5-3.71,1.26a23.09,23.09,0,0,1-4.9-1.42,1,1,0,0,1-1.19-.71c-.24-.87-.55-1-1.26-1.34s-1.74-.63-.71-.87,4.26-1.1,4.26-1.1a7.83,7.83,0,0,0,1.9-.95l2.69-2.05s.19.64-.08.85a18.4,18.4,0,0,1-1.95,1.65c-.59.31-.47.47-.94.43s-.94,0-1.09.2-.08.58-.79.7-1.48-.12-1.13.39.78,1.94,1.49,2.06a12.05,12.05,0,0,1,2.46,1.21l1.75.31,1.92-.54A4.27,4.27,0,0,0,414,303C414.46,302.36,421.82,289.77,421.82,289.77Z"/><path class="cls-16" d="M399.63,299.46a21.54,21.54,0,0,1-1.76-2.27"/><path class="cls-15" d="M423.2,288.17l2.19-5.18a9.08,9.08,0,0,1-1.71-1.09c-1.21-.9-3.12-1.38-7.9-2.6s-6.59-.95-6.59-.95,0,.62-.28.66a1,1,0,0,1-.5-.08s-.32-.29-.63-.54a2.63,2.63,0,0,0-1.13-.49c-.43-.08-.08.41-.16.74s-.47,0-.47,0-.62-.49-.89-.46-.88.86-1.69,1.68a10.08,10.08,0,0,0-1.49,2.72,4.06,4.06,0,0,0-.27,2.63c.1.86.56.91.76,1.17s.59-.13.59-.13v-.71a10.54,10.54,0,0,0,1.25-.68,3.53,3.53,0,0,0,1.11-1.46s-.48,2.34-.62,3.51a8.28,8.28,0,0,1-1.74,3.36c-.84,1.24-1.26.74-1.74.45s-1,.8-1.61,1.39a20.78,20.78,0,0,0-1.81,2.49,1.43,1.43,0,0,0,0,1.46"/><path class="cls-15" d="M425.39,281.86v-5.2s-.26-.49-1.12-.32-2.14.52-2.44,0-2.23-.45-2.23-.45l-4.56.49a26.44,26.44,0,0,1-2.68.16c-.65-.06-2.69-.06-2.69-.06s-1.12.33-1,.65a.82.82,0,0,0,.91.48.54.54,0,0,1,.59.27l4.88.16.22.85s3.81,0,5,.71S425.39,281.86,425.39,281.86Z"/><path class="cls-12" d="M398.33,295.05l24.82-6.95-1.69,2.06-5.23,8.38-2.7,4.72-3.24,1.1a6.47,6.47,0,0,1-1.7-.33,6.51,6.51,0,0,0-1.85-1.27,1.43,1.43,0,0,1-1-.59c-.19-.28-.73-1.58-.73-1.58a5.35,5.35,0,0,0,.92,0,2.9,2.9,0,0,0,.92-.58l.19-.29h1a3,3,0,0,0,1.38-.61c.52-.47,1.64-1.79,1.64-1.79s.29-.44.14-.69,0-.65-.39-.49-3.69,2.42-3.69,2.42l-2.24.85-2.31.52-.82.19s-.93.3-1.36-.29l-2.25-3.13a1.94,1.94,0,0,1-.31-1.08A.78.78,0,0,1,398.33,295.05Z"/><path class="cls-12" d="M411.64,300.56a3.24,3.24,0,0,0,.72-.61,2.65,2.65,0,0,0,.46-.73.41.41,0,0,0,0-.45.56.56,0,0,0-.35-.37,1.64,1.64,0,0,0-.67-.24,3.15,3.15,0,0,0-.87-.11l-.66,0a4.77,4.77,0,0,0-1.24.29l-.48.23a1.45,1.45,0,0,0-.59.56,1.37,1.37,0,0,1-.23.43l.22-.29a1.77,1.77,0,0,1-.34.33l.37-.27,0,0a1.22,1.22,0,0,0-.48.42.53.53,0,0,0-.16.45.53.53,0,0,0,.26.4,1,1,0,0,0,.56.3l.52.12a4.91,4.91,0,0,0,1.27,0l.65-.12a3.76,3.76,0,0,0,1.07-.41Z"/><path class="cls-12" d="M409.69,299c-.54.41-1.08.82-1.59,1.26a3,3,0,0,0-.52.49,1.21,1.21,0,0,0-.28.4c-.05.12,0,.19.08.22a.36.36,0,0,0,.36,0l.39-.11a7.77,7.77,0,0,0,1-.46,10.17,10.17,0,0,0,1.61-1.06c.35-.31.72-.6,1.09-.89l-.47.37v0a4.88,4.88,0,0,0,.67-.53,3,3,0,0,0,.47-.47.37.37,0,0,0,.14-.34c0-.1,0-.16-.16-.17l-.28,0a4.48,4.48,0,0,0-.87.3l-.54.27a10.11,10.11,0,0,0-1.13.7Z"/><path class="cls-12" d="M404.52,300.7s0,0,0,.06a3.57,3.57,0,0,0,.19.45l0,.06a4.87,4.87,0,0,0,.32.47,5.8,5.8,0,0,0,.47.52c.09.09.21.18.3.26a3.7,3.7,0,0,0,.29.24,6.34,6.34,0,0,0,1.61.89c.44.18.87.36,1.3.56L407.66,301l-.13,0,.5.18-.31-.15-.64-.22-.19-.06a6.49,6.49,0,0,0-.77-.11,2.29,2.29,0,0,0-.37,0,.55.55,0,0,0-.48.14.39.39,0,0,0-.23.37,1.11,1.11,0,0,0,.14.56,2.12,2.12,0,0,0,.39.64,5.38,5.38,0,0,0,1.47,1.26l.54.27a2.56,2.56,0,0,0,.94.24,2,2,0,0,1,.54,0l-.44-.07a2,2,0,0,1,.35.09l-.5-.17a2,2,0,0,1,.31.13l.14.06a5.52,5.52,0,0,0,.53.18l.1,0a1.1,1.1,0,0,0,.62,0,.49.49,0,0,0,.42-.19l.11-.28a1.12,1.12,0,0,0-.14-.57,1.27,1.27,0,0,0-.24-.42,3,3,0,0,0-.56-.67,6,6,0,0,0-1.6-1.08l-.85-.38c-.27-.11-.56-.21-.83-.34l.54.28-.09,0,.55.37-.08-.06.51.43-.07-.06.41.45,0-.05.3.44-.05-.1.18.41,0-.09a1.9,1.9,0,0,0-.33-.63,3,3,0,0,0-.56-.67,5.18,5.18,0,0,0-.78-.62,3.85,3.85,0,0,0-.82-.46l-.5-.17a1.45,1.45,0,0,0-.8,0l-.24.18a.7.7,0,0,0-.06.63Z"/><path class="cls-12" d="M404.6,301.66l0,0-.1-.16a3.17,3.17,0,0,1,.17.38,2.66,2.66,0,0,0,.3.47,2.54,2.54,0,0,0,.77.61,1.25,1.25,0,0,0,.42.08,1.89,1.89,0,0,0,.53,0,2.34,2.34,0,0,0,.58-.14,2.62,2.62,0,0,0,.52-.22l.26-.18a.83.83,0,0,0,.3-.39V302a.47.47,0,0,0-.29-.28l-.1-.05.19.11a1.9,1.9,0,0,1-.62-.61l.1.15a4.79,4.79,0,0,0-.37-.71.63.63,0,0,0-.32-.15,1.17,1.17,0,0,0-.45-.06,2.6,2.6,0,0,0-.56.07,2.41,2.41,0,0,0-.58.17l-.32.16a1.37,1.37,0,0,0-.46.37l-.11.19a.33.33,0,0,0,.1.34Z"/><path class="cls-12" d="M407.76,301.39h0l.26.07-.05,0,.19.11a.37.37,0,0,1-.12-.13l0-.07a1.17,1.17,0,0,0-.25-.16l-.27-.07a1.67,1.67,0,0,0-.5,0,1.5,1.5,0,0,0-.37.05,3,3,0,0,0-.58.17l-.33.16-.26.18a.61.61,0,0,0-.25.28.35.35,0,0,0-.06.28.57.57,0,0,0,0,.14.83.83,0,0,0,.18.25,1.28,1.28,0,0,0,.25.15l.06,0,.4.11-.26-.07a.84.84,0,0,1,.2.08,1.16,1.16,0,0,0,.42.08,1.82,1.82,0,0,0,.52,0l.39-.08a2.79,2.79,0,0,0,.55-.2,1.69,1.69,0,0,0,.29-.17,1.29,1.29,0,0,0,.33-.28l.1-.19a.33.33,0,0,0-.09-.35.8.8,0,0,0-.22-.13h0l-.26-.07h-.12l.26.07-.05,0,.19.12-.08-.07c-.09-.07-.19-.11-.28-.17l.19.12a.49.49,0,0,1-.12-.13l.09.16-.06-.13a.33.33,0,0,0-.19-.21.69.69,0,0,0-.36-.13,1.68,1.68,0,0,0-.5,0,2.26,2.26,0,0,0-.57.09l-.38.13a2.34,2.34,0,0,0-.6.33l-.19.19a.45.45,0,0,0-.11.38.41.41,0,0,0,.05.09,1.18,1.18,0,0,0,.11.19l0,0a.23.23,0,0,0,.07.07l.27.16-.19-.11a.18.18,0,0,1,.07.05l0,0,.11.06.11.07.16,0a.47.47,0,0,0,.17,0h.08l-.26-.06h0l-.18-.12h0l2.52-1.2a2.69,2.69,0,0,0-.55-.17l.26.07-.15-.06.19.11a.24.24,0,0,1-.1-.1l.1.16a.24.24,0,0,1-.05-.14l-2.61,1h0l-.18-.12a.65.65,0,0,1,.13.16.6.6,0,0,0,.08.08h0l.18.12h0a1.47,1.47,0,0,0,.3.08,2.1,2.1,0,0,0,.5,0,2.27,2.27,0,0,0,.58-.1,2.06,2.06,0,0,0,.54-.2,1.7,1.7,0,0,0,.43-.26l.19-.19a.42.42,0,0,0,.11-.38l-.09-.15a.83.83,0,0,0-.45-.19Z"/><path class="cls-12" d="M407.92,301.38l0,0,.09.13a2.14,2.14,0,0,1-.1-.22l-.09-.25a.27.27,0,0,0-.18-.18.62.62,0,0,0-.35-.1,2.09,2.09,0,0,0-.5,0,3.78,3.78,0,0,0-.57.1l-.38.13a2.85,2.85,0,0,0-.6.31l-.19.17a.38.38,0,0,0-.13.33c0,.1.07.19.1.28a1.31,1.31,0,0,0,.21.36.63.63,0,0,0,.31.12,1.14,1.14,0,0,0,.45,0,2,2,0,0,0,.55-.08,2.94,2.94,0,0,0,.58-.16l.33-.15a1.71,1.71,0,0,0,.47-.34l.11-.17a.25.25,0,0,0-.08-.29Z"/><path class="cls-12" d="M407.8,301.39a.14.14,0,0,0,0-.07.17.17,0,0,0-.17-.12.61.61,0,0,0-.33-.05,2.7,2.7,0,0,0-.49,0,3.48,3.48,0,0,0-.56.12l-.39.11a4.78,4.78,0,0,0-.61.28l-.2.14a.27.27,0,0,0-.15.25.85.85,0,0,0,.09.22.21.21,0,0,0,.17.12.75.75,0,0,0,.33,0,2.63,2.63,0,0,0,.49,0,3.82,3.82,0,0,0,.57-.11l.38-.12a3.37,3.37,0,0,0,.61-.28l.21-.14a.29.29,0,0,0,.14-.25s-.07-.09-.08-.15a.41.41,0,0,0,0-.08.35.35,0,0,0-.05-.08,1.3,1.3,0,0,1-.08-.17l-.07-.19a.21.21,0,0,0-.17-.12.74.74,0,0,0-.33-.05,2.63,2.63,0,0,0-.49,0,5.78,5.78,0,0,0-.57.12l-.38.12a3.33,3.33,0,0,0-.61.27l-.21.14a.29.29,0,0,0-.14.25v0a.2.2,0,0,0,.16.12.75.75,0,0,0,.33,0,2.63,2.63,0,0,0,.49,0,3.82,3.82,0,0,0,.57-.11l.38-.12a3.33,3.33,0,0,0,.61-.27l.21-.15a.29.29,0,0,0,.14-.25h0l-2.9.77c0,.07,0,.13.07.19a.89.89,0,0,0,.08.17l.05.08a.32.32,0,0,1,0,.09c0,.06.06.09.08.15l2.9-.78a.78.78,0,0,1-.09-.21l-2.9.77a.24.24,0,0,1,0,.08.18.18,0,0,0,.17.11.64.64,0,0,0,.33.05,2.63,2.63,0,0,0,.49,0,2.9,2.9,0,0,0,.57-.12l.38-.11a4.22,4.22,0,0,0,.61-.28l.21-.14a.29.29,0,0,0,.14-.25Z"/><path class="cls-12" d="M407.83,301.19a7.31,7.31,0,0,0-.4-.79.71.71,0,0,0-.36-.28,1.1,1.1,0,0,0-.47-.16,1.36,1.36,0,0,0-.57,0,1.49,1.49,0,0,0-.58.17l-.31.19a1.4,1.4,0,0,0-.43.51l-.08.28a.78.78,0,0,0,.15.55c.08.15.17.3.24.45l-.12-.25,0,.08a.58.58,0,0,0,.23.36.82.82,0,0,0,.38.25,1.6,1.6,0,0,0,.53.09,1.65,1.65,0,0,0,.58-.07l.37-.14a1.72,1.72,0,0,0,.57-.43l.17-.27a.8.8,0,0,0,.06-.57Z"/><ellipse class="cls-17" cx="409.52" cy="303.03" rx="0.84" ry="1.43" transform="translate(68.75 681.72) rotate(-84.52)"/><ellipse class="cls-17" cx="409.97" cy="303.74" rx="0.23" ry="0.45" transform="translate(21.04 634) rotate(-76.87)"/><ellipse class="cls-17" cx="406.57" cy="296.64" rx="4.58" ry="0.84" transform="translate(-95.67 264.16) rotate(-32.41)"/><ellipse class="cls-17" cx="402.28" cy="299.24" rx="1.43" ry="0.84" transform="translate(-73.7 141.72) rotate(-18.33)"/><ellipse class="cls-17" cx="403.57" cy="298.91" rx="1.43" ry="0.84" transform="translate(-90.27 207.6) rotate(-26.05)"/><ellipse class="cls-17" cx="405.2" cy="298.45" rx="1.43" ry="0.84" transform="translate(-94.94 242.58) rotate(-30)"/><ellipse class="cls-17" cx="406.38" cy="298.03" rx="1.43" ry="0.84" transform="translate(-97.27 315.63) rotate(-38.26)"/><ellipse class="cls-17" cx="407.47" cy="297.52" rx="1.43" ry="0.69" transform="translate(-91.03 375.27) rotate(-45)"/><ellipse class="cls-17" cx="408.62" cy="296.64" rx="1.43" ry="0.56" transform="translate(-90.08 375.82) rotate(-45)"/><ellipse class="cls-17" cx="409.34" cy="296.7" rx="1.43" ry="0.18" transform="translate(-93.33 350.66) rotate(-42.06)"/><ellipse class="cls-17" cx="410.75" cy="295.8" rx="0.37" ry="0.55" transform="translate(77.05 676.4) rotate(-84.52)"/><ellipse class="cls-17" cx="411.14" cy="296.99" rx="0.21" ry="0.8" transform="translate(-57.37 102.74) rotate(-13.32)"/><ellipse class="cls-17" cx="410.21" cy="298.84" rx="1.43" ry="0.41" transform="translate(-75.35 446.51) rotate(-52.99)"/><ellipse class="cls-17" cx="409.31" cy="299.2" rx="1.41" ry="0.2" transform="matrix(0.82, -0.57, 0.57, 0.82, -97.48, 284.47)"/><ellipse class="cls-17" cx="405.16" cy="301.16" rx="0.05" ry="0.24" transform="translate(-99.46 315.55) rotate(-38.26)"/><ellipse class="cls-17" cx="406.85" cy="299.95" rx="0.07" ry="0.16" transform="translate(69.4 676.28) rotate(-84.52)"/><rect class="cls-17" x="411.37" y="298.17" width="9.08" height="0.55" transform="translate(-50.51 509.41) rotate(-60)"/><ellipse class="cls-17" cx="419.37" cy="292.67" rx="2.24" ry="0.25" transform="translate(-43.78 509.53) rotate(-60)"/></g><g id="plate"><ellipse class="cls-15" cx="295.38" cy="209.52" rx="25.94" ry="7.01"/></g><g id="body_of_cup" data-name="body of cup"><ellipse class="cls-18" cx="294.32" cy="176.76" rx="14.34" ry="2.27"/><path class="cls-19" d="M309,176.76l-1.46,33.74a9.56,9.56,0,0,1-3.88,2.58,35.74,35.74,0,0,1-13,.8,9.71,9.71,0,0,1-6.84-4.17l-3.75-33"/></g><g id="top_of_cup" data-name="top of cup"><ellipse class="cls-19" cx="294.47" cy="176.68" rx="14.48" ry="2.35"/></g><g id="straw"><path class="cls-19" d="M307.31,156.64l-6.79,29.68a1.11,1.11,0,0,0,.68.9c.65.29,1.15,0,1.68,0s.84-1.81.84-1.81l6.37-27.68"/></g><g id="straw_top" data-name="straw top"><ellipse class="cls-19" cx="308.83" cy="156.9" rx="1.12" ry="1.65" transform="translate(60.57 398.48) rotate(-71.15)"/></g><g id="inside_of_cup" data-name="inside of cup"><path class="cls-20" d="M281.62,187.75l26.42-.41-.82,21.81a20.17,20.17,0,0,1-5.09,2.49c-2.78.89-17.95-1.21-18.07-2.49S281.62,187.75,281.62,187.75Z"/><path class="cls-20" d="M287.64,212.18s7.75,1.59,12.63,1.26a10.78,10.78,0,0,0,6.93-3.07l-.1-1.34h-23s-.14.11.15.62A30.41,30.41,0,0,0,287.64,212.18Z"/></g><g id="inside_circle" data-name="inside circle"><ellipse class="cls-19" cx="295.05" cy="187.13" rx="13.11" ry="2.6"/></g><g id="boba"><ellipse class="cls-8" cx="287.2" cy="193.3" rx="1.59" ry="1.42"/><ellipse class="cls-8" cx="295.45" cy="194.94" rx="1.59" ry="1.42"/><circle class="cls-8" cx="293.7" cy="200.42" r="2.1"/><ellipse class="cls-8" cx="287.85" cy="200.78" rx="1.59" ry="1.42"/><ellipse class="cls-8" cx="299.87" cy="200.5" rx="1.59" ry="1.42"/><circle class="cls-8" cx="304.08" cy="200.42" r="1.15"/><ellipse class="cls-8" cx="303.05" cy="204.75" rx="1.59" ry="1.42"/><circle class="cls-8" cx="295.79" cy="206.39" r="1.42"/><circle class="cls-8" cx="291.18" cy="207.55" r="1.16"/></g><g id="left_hand" data-name="left hand"><path class="cls-12" d="M303.5,218.49l.25-.15-.59-.86s4.19,1,4.12,2.51-2.18,1.58-2.18,1.58Z"/></g><g id="left_hand-2" data-name="left hand"><path class="cls-12" d="M304.77,220.75s2.7-.05,2.83-1.16.14-1.43.14-1.43a3.57,3.57,0,0,1,.59,2.52c-.36,1.11.11,1.86-.59,2.2-1.44.73-3,2-4.35,1.39a2.32,2.32,0,0,1-.87-.76l2.25-2.76"/></g><g id="left_hand-3" data-name="left hand"><path class="cls-15" d="M283.08,216.89l3,.19s.14,1,.37,2.79a36.07,36.07,0,0,0,.95,4.28,8.13,8.13,0,0,1-3.91-1.4,3.88,3.88,0,0,1-.9-4C282.9,217.57,283.08,216.89,283.08,216.89Z"/><path class="cls-15" d="M305.52,221.57s.31,1.09-1.29,2-3.45,1.35-7.06,1.35h-6.55s-2.26-.23-2.73-1.35a10.09,10.09,0,0,1-1-3.77v-2.88h15.88a1.8,1.8,0,0,1,.87,1.21"/><path class="cls-15" d="M310.29,230.08s2.07-1.76,2.18-3.57.55-3,0-5.08a38.1,38.1,0,0,0-1.27-3.83l-.15-1.59-8.52.87a17,17,0,0,1,3.34,1.14,3.91,3.91,0,0,1,2,2.59,24.17,24.17,0,0,1-.27,2.44l-10.17,3.72,8.21,3.11s-.2.41.71.72,1.88.83,2.23.73"/></g><g id="sleeve"><path class="cls-15" d="M304,229.91l.48,8.42s0,1,1,0,4.84-6.47,4.84-6.47L304,229.22Z"/></g><g id="sleeve-2" data-name="sleeve"><path class="cls-18" d="M306,238.41l7.1,1.34s6.88-15.52,5.1-17.88-1.76-3.06-3.89-2.8l-2.14.26s1.68,5.06,1.59,6.5-2.57,4.44-2.57,4.44Z"/></g><g id="Mr.tea_Cafe" data-name="Mr.tea Cafe"><text class="cls-21" transform="translate(14.42 129.03)">Mr.<tspan class="cls-22" x="136.41" y="0"> </tspan><tspan class="cls-23" x="148.51" y="0">T</tspan><tspan x="198.58" y="0">ea</tspan><tspan x="57.6" y="63.14">C</tspan><tspan class="cls-24" x="112.24" y="63.14">a</tspan><tspan class="cls-25" x="159.3" y="63.14">f</tspan><tspan class="cls-26" x="190.11" y="63.14">e</tspan></text></g></svg>